<?xml version="1.0" encoding="iso-8859-1"?>
<!-- Uploaded to: SVG Repo, www.svgrepo.com, Generator: SVG Repo Mixer Tools -->
<svg height="800px" width="800px" version="1.1" id="Layer_1" xmlns="http://www.w3.org/2000/svg" xmlns:xlink="http://www.w3.org/1999/xlink" 
	 viewBox="0 0 512.002 512.002" xml:space="preserve">
<path style="fill:#FAE8AC;" d="M88.535,487.696c-11.558-11.558-19.299-25.987-22.545-41.683
	c-15.697-3.246-30.125-10.986-41.684-22.545c-32.405-32.404-32.41-84.856,0-117.264c28.665-28.666,73.268-31.915,105.546-9.749
	l166.591-166.591c-21.883-31.749-19.403-76.395,9.759-105.557c32.405-32.405,84.857-32.41,117.264,0
	c11.56,11.558,19.299,25.986,22.545,41.683c15.698,3.246,30.125,10.986,41.684,22.545c32.405,32.404,32.41,84.856,0,117.264
	c-28.664,28.666-73.267,31.918-105.546,9.749L215.548,382.15c22.168,32.279,18.918,76.881-9.749,105.546
	C173.396,520.101,120.944,520.106,88.535,487.696z"/>
<path style="fill:#F6D86E;" d="M215.548,382.15L382.15,215.548c32.28,22.169,76.882,18.918,105.546-9.749
	c32.41-32.408,32.406-84.861,0-117.264c-11.558-11.56-25.986-19.3-41.684-22.545l0,0L65.991,446.012l0,0
	c3.246,15.697,10.986,30.125,22.545,41.683c32.407,32.411,84.859,32.405,117.264,0C234.466,459.031,237.716,414.428,215.548,382.15z
	"/>
</svg>